<svg width="1920" height="1152" viewBox="0 0 1920 1152" fill="none" xmlns="http://www.w3.org/2000/svg">
<rect width="192" height="192" fill="#FF8AD0"/>
<path d="M192 0H384V192H192V0Z" fill="#AB1870"/>
<rect y="192" width="192" height="192" fill="#FFD9F0"/>
<path d="M192 192H384V384H192V192Z" fill="#FF8AD0"/>
<path d="M384 0H512V128H384V0Z" fill="#AB1870"/>
<path d="M384 128H512V256H384V128Z" fill="#AB1870"/>
<path d="M384 256H512V384H384V256Z" fill="#AB1870"/>
<path d="M512 0H640V128H512V0Z" fill="#AB1870"/>
<path d="M768 0H864V96H768V0Z" fill="#AB1870"/>
<path d="M768 96H864V192H768V96Z" fill="#AB1870"/>
<path d="M768 192H864V288H768V192Z" fill="#AB1870"/>
<path d="M768 288H864V384H768V288Z" fill="#AB1870"/>
<path d="M768 384H864V480H768V384Z" fill="#AB1870"/>
<path d="M768 480H864V576H768V480Z" fill="#AB1870"/>
<path d="M768 576H864V672H768V576Z" fill="#AB1870"/>
<path d="M768 672H864V768H768V672Z" fill="#AB1870"/>
<path d="M768 768H864V864H768V768Z" fill="#FF8AD0"/>
<path d="M672 768H768V864H672V768Z" fill="#AB1870"/>
<path d="M576 768H672V864H576V768Z" fill="#AB1870"/>
<path d="M480 768H576V864H480V768Z" fill="#FFD9F0"/>
<path d="M384 768H480V864H384V768Z" fill="#AB1870"/>
<path d="M288 768H384V864H288V768Z" fill="#AB1870"/>
<path d="M192 768H288V864H192V768Z" fill="#AB1870"/>
<path d="M96 768H192V864H96V768Z" fill="#AB1870"/>
<path d="M0 768H96V864H0V768Z" fill="#AB1870"/>
<path d="M768 864H864V960H768V864Z" fill="#AB1870"/>
<path d="M864 0H960V96H864V0Z" fill="#AB1870"/>
<path d="M864 96H960V192H864V96Z" fill="#AB1870"/>
<path d="M864 192H960V288H864V192Z" fill="#AB1870"/>
<path d="M864 288H960V384H864V288Z" fill="#AB1870"/>
<path d="M864 384H960V480H864V384Z" fill="#AB1870"/>
<path d="M864 480H960V576H864V480Z" fill="#AB1870"/>
<path d="M864 576H960V672H864V576Z" fill="#AB1870"/>
<path d="M864 672H960V768H864V672Z" fill="#AB1870"/>
<path d="M864 768H960V864H864V768Z" fill="#AB1870"/>
<path d="M864 864H960V960H864V864Z" fill="#FF8AD0"/>
<path d="M672 864H768V960H672V864Z" fill="#AB1870"/>
<path d="M576 864H672V960H576V864Z" fill="#FFD9F0"/>
<path d="M480 864H576V960H480V864Z" fill="#AB1870"/>
<path d="M384 864H480V960H384V864Z" fill="#AB1870"/>
<path d="M288 864H384V960H288V864Z" fill="#AB1870"/>
<path d="M192 864H288V960H192V864Z" fill="#AB1870"/>
<path d="M96 864H192V960H96V864Z" fill="#AB1870"/>
<path d="M0 864H96V960H0V864Z" fill="#AB1870"/>
<path d="M768 960H864V1056H768V960Z" fill="#AB1870"/>
<path d="M672 960H768V1056H672V960Z" fill="#FFD9F0"/>
<path d="M576 960H672V1056H576V960Z" fill="#AB1870"/>
<path d="M480 960H576V1056H480V960Z" fill="#AB1870"/>
<path d="M384 960H480V1056H384V960Z" fill="#AB1870"/>
<path d="M288 960H384V1056H288V960Z" fill="#AB1870"/>
<path d="M192 960H288V1056H192V960Z" fill="#AB1870"/>
<path d="M96 960H192V1056H96V960Z" fill="#AB1870"/>
<path d="M0 960H96V1056H0V960Z" fill="#AB1870"/>
<path d="M768 1056H864V1152H768V1056Z" fill="#FFD9F0"/>
<path d="M864 960H960V1056H864V960Z" fill="#FFD9F0"/>
<path d="M864 1056H960V1152H864V1056Z" fill="#AB1870"/>
<path d="M672 1056H768V1152H672V1056Z" fill="#AB1870"/>
<path d="M576 1056H672V1152H576V1056Z" fill="#AB1870"/>
<path d="M480 1056H576V1152H480V1056Z" fill="#AB1870"/>
<path d="M384 1056H480V1152H384V1056Z" fill="#AB1870"/>
<path d="M288 1056H384V1152H288V1056Z" fill="#AB1870"/>
<path d="M192 1056H288V1152H192V1056Z" fill="#AB1870"/>
<path d="M96 1056H192V1152H96V1056Z" fill="#AB1870"/>
<path d="M0 1056H96V1152H0V1056Z" fill="#AB1870"/>
<path d="M512 128H640V256H512V128Z" fill="#AB1870"/>
<path d="M512 256H640V384H512V256Z" fill="#AB1870"/>
<path d="M512 384H640V512H512V384Z" fill="#AB1870"/>
<path d="M512 512H640V640H512V512Z" fill="#FF8AD0"/>
<path d="M640 0H768V128H640V0Z" fill="#AB1870"/>
<path d="M640 128H768V256H640V128Z" fill="#AB1870"/>
<path d="M640 256H768V384H640V256Z" fill="#AB1870"/>
<path d="M640 384H768V512H640V384Z" fill="#AB1870"/>
<path d="M640 512H768V640H640V512Z" fill="#AB1870"/>
<path d="M384 512H512V640H384V512Z" fill="#AB1870"/>
<path d="M256 512H384V640H256V512Z" fill="#FFD9F0"/>
<path d="M128 512H256V640H128V512Z" fill="#AB1870"/>
<path d="M0 512H128V640H0V512Z" fill="#AB1870"/>
<path d="M512 640H640V768H512V640Z" fill="#AB1870"/>
<path d="M640 640H768V768H640V640Z" fill="#FF8AD0"/>
<path d="M384 640H512V768H384V640Z" fill="#FFD9F0"/>
<path d="M256 640H384V768H256V640Z" fill="#AB1870"/>
<path d="M128 640H256V768H128V640Z" fill="#AB1870"/>
<path d="M0 640H128V768H0V640Z" fill="#AB1870"/>
<path d="M384 384H512V512H384V384Z" fill="#FF8AD0"/>
<path d="M256 384H384V512H256V384Z" fill="#AB1870"/>
<path d="M128 384H256V512H128V384Z" fill="#FFD9F0"/>
<path d="M0 384H128V512H0V384Z" fill="#AB1870"/>
<path d="M1728 960H1920V1152H1728V960Z" fill="#FFD9F0"/>
<path d="M1728 768H1920V960H1728V768Z" fill="#FF8AD0"/>
<path d="M1792 640H1920V768H1792V640Z" fill="#AB1870"/>
<path d="M1792 512H1920V640H1792V512Z" fill="#AB1870"/>
<path d="M1792 384H1920V512H1792V384Z" fill="#AB1870"/>
<path d="M1824 288H1920V384H1824V288Z" fill="#AB1870"/>
<path d="M1824 192H1920V288H1824V192Z" fill="#AB1870"/>
<path d="M1824 96H1920V192H1824V96Z" fill="#AB1870"/>
<path d="M1824 0H1920V96H1824V0Z" fill="#AB1870"/>
<path d="M1728 0H1824V96H1728V0Z" fill="#AB1870"/>
<path d="M1632 0H1728V96H1632V0Z" fill="#AB1870"/>
<path d="M1536 0H1632V96H1536V0Z" fill="#AB1870"/>
<path d="M1440 0H1536V96H1440V0Z" fill="#AB1870"/>
<path d="M1344 0H1440V96H1344V0Z" fill="#AB1870"/>
<path d="M1248 0H1344V96H1248V0Z" fill="#AB1870"/>
<path d="M1152 0H1248V96H1152V0Z" fill="#AB1870"/>
<path d="M1056 0H1152V96H1056V0Z" fill="#FF8AD0"/>
<path d="M960 0H1056V96H960V0Z" fill="#AB1870"/>
<path d="M960 96H1056V192H960V96Z" fill="#FF8AD0"/>
<path d="M960 192H1056V288H960V192Z" fill="#FFD9F0"/>
<path d="M960 288H1056V384H960V288Z" fill="#AB1870"/>
<path d="M960 384H1056V480H960V384Z" fill="#AB1870"/>
<path d="M960 480H1056V576H960V480Z" fill="#AB1870"/>
<path d="M960 576H1056V672H960V576Z" fill="#AB1870"/>
<path d="M960 672H1056V768H960V672Z" fill="#AB1870"/>
<path d="M960 768H1056V864H960V768Z" fill="#AB1870"/>
<path d="M960 864H1056V960H960V864Z" fill="#AB1870"/>
<path d="M960 960H1056V1056H960V960Z" fill="#AB1870"/>
<path d="M960 1056H1056V1152H960V1056Z" fill="#AB1870"/>
<path d="M1056 1056H1152V1152H1056V1056Z" fill="#AB1870"/>
<path d="M1152 1024H1280V1152H1152V1024Z" fill="#AB1870"/>
<path d="M1280 1024H1408V1152H1280V1024Z" fill="#AB1870"/>
<path d="M1408 1024H1536V1152H1408V1024Z" fill="#AB1870"/>
<rect x="1536" y="960" width="192" height="192" fill="#AB1870"/>
<path d="M1056 960H1152V1056H1056V960Z" fill="#AB1870"/>
<path d="M1152 896H1280V1024H1152V896Z" fill="#AB1870"/>
<path d="M1280 896H1408V1024H1280V896Z" fill="#AB1870"/>
<path d="M1408 896H1536V1024H1408V896Z" fill="#AB1870"/>
<rect x="1536" y="768" width="192" height="192" fill="#FFD9F0"/>
<path d="M1056 864H1152V960H1056V864Z" fill="#AB1870"/>
<path d="M1056 768H1152V864H1056V768Z" fill="#AB1870"/>
<path d="M1056 672H1152V768H1056V672Z" fill="#AB1870"/>
<path d="M1056 576H1152V672H1056V576Z" fill="#AB1870"/>
<path d="M1056 480H1152V576H1056V480Z" fill="#AB1870"/>
<path d="M1056 384H1152V480H1056V384Z" fill="#AB1870"/>
<path d="M1056 288H1152V384H1056V288Z" fill="#FFD9F0"/>
<path d="M1056 192H1152V288H1056V192Z" fill="#AB1870"/>
<path d="M1056 96H1152V192H1056V96Z" fill="#AB1870"/>
<path d="M1152 768H1280V896H1152V768Z" fill="#AB1870"/>
<path d="M1280 768H1408V896H1280V768Z" fill="#AB1870"/>
<path d="M1408 768H1536V896H1408V768Z" fill="#AB1870"/>
<path d="M1152 640H1280V768H1152V640Z" fill="#AB1870"/>
<path d="M1152 512H1280V640H1152V512Z" fill="#AB1870"/>
<path d="M1152 384H1280V512H1152V384Z" fill="#FFD9F0"/>
<path d="M1152 288H1248V384H1152V288Z" fill="#AB1870"/>
<path d="M1152 192H1248V288H1152V192Z" fill="#AB1870"/>
<path d="M1152 96H1248V192H1152V96Z" fill="#FF8AD0"/>
<path d="M1248 96H1344V192H1248V96Z" fill="#AB1870"/>
<path d="M1248 192H1344V288H1248V192Z" fill="#FF8AD0"/>
<path d="M1248 288H1344V384H1248V288Z" fill="#AB1870"/>
<path d="M1280 384H1408V512H1280V384Z" fill="#AB1870"/>
<path d="M1280 512H1408V640H1280V512Z" fill="#FFD9F0"/>
<path d="M1280 640H1408V768H1280V640Z" fill="#AB1870"/>
<path d="M1408 640H1536V768H1408V640Z" fill="#FFD9F0"/>
<path d="M1728 96H1824V192H1728V96Z" fill="#AB1870"/>
<path d="M1728 192H1824V288H1728V192Z" fill="#AB1870"/>
<path d="M1728 288H1824V384H1728V288Z" fill="#AB1870"/>
<path d="M1664 384H1792V512H1664V384Z" fill="#AB1870"/>
<path d="M1664 512H1792V640H1664V512Z" fill="#AB1870"/>
<path d="M1664 640H1792V768H1664V640Z" fill="#FF8AD0"/>
<path d="M1536 640H1664V768H1536V640Z" fill="#AB1870"/>
<path d="M1536 512H1664V640H1536V512Z" fill="#FF8AD0"/>
<path d="M1408 512H1536V640H1408V512Z" fill="#AB1870"/>
<path d="M1536 384H1664V512H1536V384Z" fill="#AB1870"/>
<path d="M1408 384H1536V512H1408V384Z" fill="#FF8AD0"/>
<path d="M1344 288H1440V384H1344V288Z" fill="#FF8AD0"/>
<path d="M1440 288H1536V384H1440V288Z" fill="#AB1870"/>
<path d="M1536 288H1632V384H1536V288Z" fill="#AB1870"/>
<path d="M1632 288H1728V384H1632V288Z" fill="#AB1870"/>
<path d="M1632 192H1728V288H1632V192Z" fill="#AB1870"/>
<path d="M1536 192H1632V288H1536V192Z" fill="#AB1870"/>
<path d="M1440 192H1536V288H1440V192Z" fill="#AB1870"/>
<path d="M1344 192H1440V288H1344V192Z" fill="#AB1870"/>
<path d="M1632 96H1728V192H1632V96Z" fill="#AB1870"/>
<path d="M1536 96H1632V192H1536V96Z" fill="#AB1870"/>
<path d="M1440 96H1536V192H1440V96Z" fill="#AB1870"/>
<path d="M1344 96H1440V192H1344V96Z" fill="#AB1870"/>
</svg>
