<svg id="SvgjsSvg1001" width="288" height="288" xmlns="http://www.w3.org/2000/svg" version="1.1" xmlns:xlink="http://www.w3.org/1999/xlink" xmlns:svgjs="http://svgjs.com/svgjs"><defs id="SvgjsDefs1002"></defs><g id="SvgjsG1008" transform="matrix(1,0,0,1,0,0)"><svg xmlns="http://www.w3.org/2000/svg" width="288" height="288" fill="none" viewBox="0 0 1920 1152"><rect width="192" height="192" fill="#8ad7ff" class="colorFF8AD0 svgShape"></rect><path fill="#0080c3" d="M192 0H384V192H192V0Z" class="colorAB1870 svgShape"></path><rect width="192" height="192" y="192" fill="#d9f2ff" class="colorFFD9F0 svgShape"></rect><path fill="#8ad7ff" d="M192 192H384V384H192V192Z" class="colorFF8AD0 svgShape"></path><path fill="#0080c3" d="M384 0H512V128H384V0zM384 128H512V256H384V128zM384 256H512V384H384V256zM512 0H640V128H512V0zM768 0H864V96H768V0zM768 96H864V192H768V96zM768 192H864V288H768V192zM768 288H864V384H768V288zM768 384H864V480H768V384zM768 480H864V576H768V480zM768 576H864V672H768V576zM768 672H864V768H768V672z" class="colorAB1870 svgShape"></path><path fill="#8ad7ff" d="M768 768H864V864H768V768Z" class="colorFF8AD0 svgShape"></path><path fill="#0080c3" d="M672 768H768V864H672V768zM576 768H672V864H576V768z" class="colorAB1870 svgShape"></path><path fill="#d9f2ff" d="M480 768H576V864H480V768Z" class="colorFFD9F0 svgShape"></path><path fill="#0080c3" d="M384 768H480V864H384V768zM288 768H384V864H288V768zM192 768H288V864H192V768zM96 768H192V864H96V768zM0 768H96V864H0V768zM768 864H864V960H768V864zM864 0H960V96H864V0zM864 96H960V192H864V96zM864 192H960V288H864V192zM864 288H960V384H864V288zM864 384H960V480H864V384zM864 480H960V576H864V480zM864 576H960V672H864V576zM864 672H960V768H864V672zM864 768H960V864H864V768z" class="colorAB1870 svgShape"></path><path fill="#8ad7ff" d="M864 864H960V960H864V864Z" class="colorFF8AD0 svgShape"></path><path fill="#0080c3" d="M672 864H768V960H672V864Z" class="colorAB1870 svgShape"></path><path fill="#d9f2ff" d="M576 864H672V960H576V864Z" class="colorFFD9F0 svgShape"></path><path fill="#0080c3" d="M480 864H576V960H480V864zM384 864H480V960H384V864zM288 864H384V960H288V864zM192 864H288V960H192V864zM96 864H192V960H96V864zM0 864H96V960H0V864zM768 960H864V1056H768V960z" class="colorAB1870 svgShape"></path><path fill="#d9f2ff" d="M672 960H768V1056H672V960Z" class="colorFFD9F0 svgShape"></path><path fill="#0080c3" d="M576 960H672V1056H576V960zM480 960H576V1056H480V960zM384 960H480V1056H384V960zM288 960H384V1056H288V960zM192 960H288V1056H192V960zM96 960H192V1056H96V960zM0 960H96V1056H0V960z" class="colorAB1870 svgShape"></path><path fill="#d9f2ff" d="M768 1056H864V1152H768V1056zM864 960H960V1056H864V960z" class="colorFFD9F0 svgShape"></path><path fill="#0080c3" d="M864 1056H960V1152H864V1056zM672 1056H768V1152H672V1056zM576 1056H672V1152H576V1056zM480 1056H576V1152H480V1056zM384 1056H480V1152H384V1056zM288 1056H384V1152H288V1056zM192 1056H288V1152H192V1056zM96 1056H192V1152H96V1056zM0 1056H96V1152H0V1056zM512 128H640V256H512V128zM512 256H640V384H512V256zM512 384H640V512H512V384z" class="colorAB1870 svgShape"></path><path fill="#8ad7ff" d="M512 512H640V640H512V512Z" class="colorFF8AD0 svgShape"></path><path fill="#0080c3" d="M640 0H768V128H640V0zM640 128H768V256H640V128zM640 256H768V384H640V256zM640 384H768V512H640V384zM640 512H768V640H640V512zM384 512H512V640H384V512z" class="colorAB1870 svgShape"></path><path fill="#d9f2ff" d="M256 512H384V640H256V512Z" class="colorFFD9F0 svgShape"></path><path fill="#0080c3" d="M128 512H256V640H128V512zM0 512H128V640H0V512zM512 640H640V768H512V640z" class="colorAB1870 svgShape"></path><path fill="#8ad7ff" d="M640 640H768V768H640V640Z" class="colorFF8AD0 svgShape"></path><path fill="#d9f2ff" d="M384 640H512V768H384V640Z" class="colorFFD9F0 svgShape"></path><path fill="#0080c3" d="M256 640H384V768H256V640zM128 640H256V768H128V640zM0 640H128V768H0V640z" class="colorAB1870 svgShape"></path><path fill="#8ad7ff" d="M384 384H512V512H384V384Z" class="colorFF8AD0 svgShape"></path><path fill="#0080c3" d="M256 384H384V512H256V384Z" class="colorAB1870 svgShape"></path><path fill="#d9f2ff" d="M128 384H256V512H128V384Z" class="colorFFD9F0 svgShape"></path><path fill="#0080c3" d="M0 384H128V512H0V384Z" class="colorAB1870 svgShape"></path><path fill="#d9f2ff" d="M1728 960H1920V1152H1728V960Z" class="colorFFD9F0 svgShape"></path><path fill="#8ad7ff" d="M1728 768H1920V960H1728V768Z" class="colorFF8AD0 svgShape"></path><path fill="#0080c3" d="M1792 640H1920V768H1792V640zM1792 512H1920V640H1792V512zM1792 384H1920V512H1792V384zM1824 288H1920V384H1824V288zM1824 192H1920V288H1824V192zM1824 96H1920V192H1824V96zM1824 0H1920V96H1824V0zM1728 0H1824V96H1728V0zM1632 0H1728V96H1632V0zM1536 0H1632V96H1536V0zM1440 0H1536V96H1440V0zM1344 0H1440V96H1344V0zM1248 0H1344V96H1248V0zM1152 0H1248V96H1152V0z" class="colorAB1870 svgShape"></path><path fill="#8ad7ff" d="M1056 0H1152V96H1056V0Z" class="colorFF8AD0 svgShape"></path><path fill="#0080c3" d="M960 0H1056V96H960V0Z" class="colorAB1870 svgShape"></path><path fill="#8ad7ff" d="M960 96H1056V192H960V96Z" class="colorFF8AD0 svgShape"></path><path fill="#d9f2ff" d="M960 192H1056V288H960V192Z" class="colorFFD9F0 svgShape"></path><path fill="#0080c3" d="M960 288H1056V384H960V288zM960 384H1056V480H960V384zM960 480H1056V576H960V480zM960 576H1056V672H960V576zM960 672H1056V768H960V672zM960 768H1056V864H960V768zM960 864H1056V960H960V864zM960 960H1056V1056H960V960zM960 1056H1056V1152H960V1056zM1056 1056H1152V1152H1056V1056zM1152 1024H1280V1152H1152V1024zM1280 1024H1408V1152H1280V1024zM1408 1024H1536V1152H1408V1024z" class="colorAB1870 svgShape"></path><rect width="192" height="192" x="1536" y="960" fill="#0080c3" class="colorAB1870 svgShape"></rect><path fill="#0080c3" d="M1056 960H1152V1056H1056V960zM1152 896H1280V1024H1152V896zM1280 896H1408V1024H1280V896zM1408 896H1536V1024H1408V896z" class="colorAB1870 svgShape"></path><rect width="192" height="192" x="1536" y="768" fill="#d9f2ff" class="colorFFD9F0 svgShape"></rect><path fill="#0080c3" d="M1056 864H1152V960H1056V864zM1056 768H1152V864H1056V768zM1056 672H1152V768H1056V672zM1056 576H1152V672H1056V576zM1056 480H1152V576H1056V480zM1056 384H1152V480H1056V384z" class="colorAB1870 svgShape"></path><path fill="#d9f2ff" d="M1056 288H1152V384H1056V288Z" class="colorFFD9F0 svgShape"></path><path fill="#0080c3" d="M1056 192H1152V288H1056V192zM1056 96H1152V192H1056V96zM1152 768H1280V896H1152V768zM1280 768H1408V896H1280V768zM1408 768H1536V896H1408V768zM1152 640H1280V768H1152V640zM1152 512H1280V640H1152V512z" class="colorAB1870 svgShape"></path><path fill="#d9f2ff" d="M1152 384H1280V512H1152V384Z" class="colorFFD9F0 svgShape"></path><path fill="#0080c3" d="M1152 288H1248V384H1152V288zM1152 192H1248V288H1152V192z" class="colorAB1870 svgShape"></path><path fill="#8ad7ff" d="M1152 96H1248V192H1152V96Z" class="colorFF8AD0 svgShape"></path><path fill="#0080c3" d="M1248 96H1344V192H1248V96Z" class="colorAB1870 svgShape"></path><path fill="#8ad7ff" d="M1248 192H1344V288H1248V192Z" class="colorFF8AD0 svgShape"></path><path fill="#0080c3" d="M1248 288H1344V384H1248V288zM1280 384H1408V512H1280V384z" class="colorAB1870 svgShape"></path><path fill="#d9f2ff" d="M1280 512H1408V640H1280V512Z" class="colorFFD9F0 svgShape"></path><path fill="#0080c3" d="M1280 640H1408V768H1280V640Z" class="colorAB1870 svgShape"></path><path fill="#d9f2ff" d="M1408 640H1536V768H1408V640Z" class="colorFFD9F0 svgShape"></path><path fill="#0080c3" d="M1728 96H1824V192H1728V96zM1728 192H1824V288H1728V192zM1728 288H1824V384H1728V288zM1664 384H1792V512H1664V384zM1664 512H1792V640H1664V512z" class="colorAB1870 svgShape"></path><path fill="#8ad7ff" d="M1664 640H1792V768H1664V640Z" class="colorFF8AD0 svgShape"></path><path fill="#0080c3" d="M1536 640H1664V768H1536V640Z" class="colorAB1870 svgShape"></path><path fill="#8ad7ff" d="M1536 512H1664V640H1536V512Z" class="colorFF8AD0 svgShape"></path><path fill="#0080c3" d="M1408 512H1536V640H1408V512zM1536 384H1664V512H1536V384z" class="colorAB1870 svgShape"></path><path fill="#8ad7ff" d="M1408 384H1536V512H1408V384zM1344 288H1440V384H1344V288z" class="colorFF8AD0 svgShape"></path><path fill="#0080c3" d="M1440 288H1536V384H1440V288zM1536 288H1632V384H1536V288zM1632 288H1728V384H1632V288zM1632 192H1728V288H1632V192zM1536 192H1632V288H1536V192zM1440 192H1536V288H1440V192zM1344 192H1440V288H1344V192zM1632 96H1728V192H1632V96zM1536 96H1632V192H1536V96zM1440 96H1536V192H1440V96zM1344 96H1440V192H1344V96z" class="colorAB1870 svgShape"></path></svg></g></svg>