<?xml version="1.0" standalone="no"?>
<!DOCTYPE svg PUBLIC "-//W3C//DTD SVG 20010904//EN"
 "http://www.w3.org/TR/2001/REC-SVG-20010904/DTD/svg10.dtd">
<svg version="1.0" xmlns="http://www.w3.org/2000/svg"
 width="256.000000pt" height="256.000000pt" viewBox="0 0 256.000000 256.000000"
 preserveAspectRatio="xMidYMid meet">
<metadata>
Created by potrace 1.14, written by Peter Selinger 2001-2017
</metadata>
<g transform="translate(0.000000,256.000000) scale(0.100000,-0.100000)"
fill="#000000" stroke="none">
<path d="M1584 2136 c-134 -134 -249 -256 -256 -272 -9 -21 -12 -168 -13 -559
-1 -492 0 -531 16 -546 15 -13 80 -15 528 -15 384 1 513 4 522 13 18 18 17
1026 -1 1047 -7 9 -16 13 -21 10 -5 -3 -9 -1 -9 4 0 10 -47 8 -57 -2 -4 -3
-12 -1 -20 5 -7 6 -13 8 -13 3 0 -9 -111 -10 -134 -1 -7 3 -19 1 -26 -3 -7 -5
-24 -4 -37 1 -12 5 -23 5 -23 1 0 -4 -34 -7 -75 -7 -41 0 -75 4 -75 9 0 5 -6
3 -14 -3 -10 -9 -15 -8 -18 1 -2 7 -4 136 -4 286 1 227 -1 272 -13 272 -8 0
-123 -110 -257 -244z"/>
<path d="M280 1822 c0 -4 -24 -6 -53 -4 -39 3 -57 -1 -66 -12 -18 -21 -19
-1032 -1 -1050 8 -8 88 -11 269 -11 l257 0 0 -275 c0 -235 2 -275 15 -278 18
-3 523 503 515 517 -4 5 -3 12 2 15 10 6 10 1071 1 1081 -4 3 -19 8 -35 11
-15 3 -31 7 -36 10 -4 3 -8 2 -8 -3 0 -8 -112 -8 -134 0 -7 3 -19 1 -26 -3 -7
-5 -24 -4 -37 1 -12 5 -23 5 -23 1 0 -4 -38 -7 -85 -7 -47 0 -85 3 -85 6 0 7
-49 3 -57 -5 -4 -3 -12 -1 -20 5 -7 6 -13 8 -13 3 0 -5 -16 -9 -35 -10 -19 0
-35 3 -35 6 0 8 -49 4 -57 -4 -4 -3 -12 -1 -20 5 -7 6 -13 8 -13 3 0 -9 -111
-10 -134 -1 -7 3 -19 1 -26 -3 -7 -5 -24 -4 -37 1 -12 5 -23 5 -23 1z"/>
</g>
</svg>
